<?xml version="1.0" standalone="no"?>
<!DOCTYPE svg PUBLIC "-//W3C//DTD SVG 20010904//EN"
 "http://www.w3.org/TR/2001/REC-SVG-20010904/DTD/svg10.dtd">
<svg version="1.0" xmlns="http://www.w3.org/2000/svg"
 width="1455.000000pt" height="1365.000000pt" viewBox="0 0 1455.000000 1365.000000"
 preserveAspectRatio="xMidYMid meet">

<g transform="translate(0.000000,1365.000000) scale(0.100000,-0.100000)"
fill="#000000" stroke="none">
<path d="M22 6833 l3 -6818 7250 0 7250 0 3 6818 2 6817 -35 0 c-19 0 -35 -4
-35 -10 0 -7 -913 -10 -2720 -10 -1807 0 -2720 3 -2720 10 0 6 -18 10 -41 10
-24 0 -38 -4 -34 -10 4 -7 -168 -10 -509 -10 -337 0 -516 3 -516 10 0 6 -18
10 -40 10 -22 0 -40 -4 -40 -10 0 -7 -193 -10 -560 -10 -367 0 -560 3 -560 10
0 6 -18 10 -40 10 -22 0 -40 -4 -40 -10 0 -7 -178 -10 -515 -10 -337 0 -515 3
-515 10 0 6 -16 10 -35 10 -19 0 -35 -4 -35 -10 0 -7 -915 -10 -2725 -10
-1810 0 -2725 3 -2725 10 0 6 -16 10 -35 10 l-35 0 2 -6817z m5521 6631 c42
-674 525 -1294 1182 -1513 964 -322 1993 242 2245 1230 25 96 50 264 50 337
l0 52 2720 0 2720 0 0 -2690 0 -2690 -430 0 -430 0 0 -30 0 -30 430 0 430 0 0
-4025 0 -4025 -425 0 -425 0 0 2024 0 2025 -67 158 c-272 641 -680 1291 -1142
1817 -148 169 -439 460 -614 615 -1457 1288 -3407 1893 -5337 1655 -1276 -157
-2484 -673 -3480 -1487 -514 -420 -960 -909 -1338 -1466 -216 -319 -472 -792
-630 -1166 l-72 -170 0 -2003 0 -2002 -420 0 -420 0 0 4025 0 4025 430 0 430
0 0 30 0 30 -430 0 -430 0 0 2690 0 2690 2723 0 2724 0 6 -106z m1110 25 c39
-197 168 -370 342 -454 99 -49 174 -66 285 -66 181 0 318 57 445 185 112 112
162 212 190 379 l6 37 512 0 513 0 -8 -102 c-48 -659 -501 -1235 -1135 -1447
-296 -98 -645 -107 -960 -25 -445 115 -842 441 -1051 859 -106 214 -154 392
-176 653 l-6 62 514 0 513 0 16 -81z m1186 59 c-1 -49 -36 -156 -71 -219 -118
-210 -365 -324 -598 -275 -232 48 -413 239 -446 469 l-6 47 561 0 561 0 -1
-22z m51 -5212 c885 -90 1633 -303 2389 -680 571 -284 1063 -619 1531 -1043
723 -655 1313 -1486 1684 -2372 l56 -134 0 -2013 0 -2014 -1520 0 -1519 0 -3
68 -3 67 -30 0 -30 0 -3 -67 -3 -68 -424 0 -425 0 0 1000 0 1000 46 0 c45 0
45 0 42 33 -3 30 -6 32 -45 35 l-43 3 0 129 0 129 43 3 c39 3 42 5 42 33 0 28
-3 30 -42 33 l-43 3 0 425 0 424 45 0 c43 0 45 1 45 30 0 29 -2 30 -45 30
l-45 0 0 424 0 425 43 3 c39 3 42 5 45 36 3 32 3 32 -42 32 l-46 0 -2 618 -3
617 -280 3 -281 2 -12 128 c-15 160 -33 246 -83 396 -147 442 -459 801 -874
1005 -169 83 -315 132 -500 166 -91 16 -279 23 -396 15 -169 -13 -267 -33
-427 -85 -665 -219 -1143 -833 -1188 -1525 l-7 -100 -286 -2 -286 -3 -3 -617
-2 -618 -46 0 c-45 0 -45 0 -42 -32 3 -31 6 -33 46 -36 l42 -3 0 -425 0 -424
-45 0 c-43 0 -45 -1 -45 -30 0 -29 2 -30 45 -30 l45 0 0 -424 0 -425 -42 -3
c-40 -3 -43 -5 -43 -33 0 -28 3 -30 43 -33 l42 -3 0 -129 0 -129 -42 -3 c-40
-3 -43 -5 -46 -35 -3 -33 -3 -33 42 -33 l46 0 0 -1000 0 -1000 -425 0 -424 0
-3 68 -3 67 -30 0 -30 0 -3 -67 -3 -68 -1519 0 -1520 0 0 2004 0 2003 49 119
c389 945 1019 1821 1796 2494 906 786 1959 1303 3125 1534 289 57 546 90 935
120 130 10 839 -3 985 -18z m-278 -1175 c521 -113 947 -446 1172 -916 91 -189
143 -387 162 -617 l6 -78 -1672 0 -1672 0 7 93 c32 421 220 817 523 1097 252
234 551 380 889 435 132 21 457 14 585 -14z m-2072 -4381 l0 -2700 -255 0
-255 0 0 2700 0 2700 255 0 255 0 0 -2700z m3410 0 l0 -2700 -1675 0 -1675 0
1 2498 c1 1991 3 2488 13 2452 11 -39 16 -45 36 -42 13 1 25 4 27 6 2 2 -6 41
-17 87 -35 134 -60 279 -60 341 l0 58 1675 0 1675 0 0 -2700z m570 0 l0 -2700
-255 0 -255 0 0 2700 0 2700 255 0 255 0 0 -2700z"/>
<path d="M8851 4958 c-10 -24 -22 -54 -26 -68 -4 -14 -29 -68 -55 -121 -47
-93 -48 -96 -28 -108 11 -7 24 -9 28 -4 29 30 160 318 149 327 -2 2 -14 7 -27
10 -19 6 -25 2 -41 -36z"/>
<path d="M5795 4667 c-17 -13 -16 -17 21 -73 21 -32 65 -95 99 -138 33 -44 63
-85 67 -90 5 -7 15 -4 28 10 l21 20 -57 69 c-31 38 -77 102 -103 142 -25 40
-49 73 -52 73 -3 0 -13 -6 -24 -13z"/>
<path d="M8425 4309 c-49 -45 -109 -95 -132 -112 -35 -24 -40 -33 -33 -48 6
-10 14 -21 20 -24 11 -7 88 54 204 161 68 63 78 75 67 88 -8 9 -19 16 -25 16
-6 0 -51 -37 -101 -81z"/>
<path d="M6274 4145 c-9 -14 -15 -27 -13 -29 79 -59 303 -181 318 -171 5 2 11
14 14 25 4 18 -7 27 -76 62 -45 22 -114 63 -154 89 l-72 49 -17 -25z"/>
<path d="M7870 3959 c-41 -17 -113 -41 -160 -53 -62 -17 -86 -28 -88 -41 -7
-33 13 -37 95 -16 90 23 248 82 252 94 5 13 -6 47 -16 46 -4 0 -42 -14 -83
-30z"/>
<path d="M5887 3874 c-4 -4 -7 -20 -7 -36 l0 -28 81 0 80 0 -3 33 -3 32 -70 3
c-39 1 -74 0 -78 -4z"/>
<path d="M6917 3858 c-4 -12 -4 -24 -2 -26 9 -9 154 -30 258 -37 l107 -7 0 31
0 31 -57 0 c-32 0 -107 7 -168 15 -139 19 -132 19 -138 -7z"/>
<path d="M8514 3866 c-3 -8 -4 -23 -2 -33 3 -15 15 -18 81 -21 l78 -3 -3 33
-3 33 -73 3 c-57 2 -74 0 -78 -12z"/>
<path d="M7200 2734 c-165 -18 -293 -51 -415 -110 -285 -134 -512 -392 -609
-689 -46 -142 -59 -249 -60 -495 l-1 -225 30 0 30 0 6 265 c6 241 9 274 32
363 109 413 434 723 847 807 120 24 303 27 417 5 381 -72 701 -342 832 -702
55 -150 64 -215 65 -488 l1 -250 30 0 30 0 3 210 c2 123 -2 247 -8 300 -73
557 -532 979 -1095 1008 -55 2 -116 3 -135 1z"/>
<path d="M7206 1796 c-54 -20 -85 -45 -121 -95 -24 -34 -30 -54 -33 -109 -6
-102 36 -180 119 -223 38 -19 39 -21 39 -74 l0 -55 -402 -2 c-350 -3 -403 -5
-403 -18 0 -13 103 -15 870 -15 767 0 870 2 870 15 0 13 -53 15 -402 18 l-403
2 0 54 c0 52 0 53 41 71 128 58 170 235 82 352 -54 74 -173 110 -257 79z m180
-51 c78 -46 114 -158 78 -243 -33 -80 -100 -125 -184 -125 -151 0 -246 153
-180 289 21 43 76 88 126 104 43 14 112 3 160 -25z"/>
</g>
</svg>
